<svg xmlns="http://www.w3.org/2000/svg" viewBox="0 0 1023.75 819"><defs><style>.cls-1{fill:#f15a24;opacity:0.9;}.cls-2{fill:#e19974;}.cls-3{fill:#cf7c51;}.cls-4{fill:#1026c4;}.cls-5{fill:#0e248e;}.cls-6{fill:#93278f;}.cls-7{fill:#662d91;}.cls-8{fill:#1424f2;}.cls-9{fill:#ecae8f;}.cls-10{fill:#4d187c;}.cls-11{fill:#ff0;}.cls-12{fill:#1a1a1a;}.cls-13{fill:#4d61f4;}.cls-14{fill:#fffc80;}.cls-15{fill:#a2b6fc;}.cls-16{fill:#c1714d;}.cls-17{fill:#ff5445;}.cls-18{fill:#fff;}</style></defs><title>Home Page</title><g id="Layer_2" data-name="Layer 2"><rect class="cls-1" width="1023.75" height="819"/><path d="M682.5,654.19l-45.15.18q-22.58.14-45.15.5t-45.15.72l-45.14,1,22.56-.87,22.57-.65q22.58-.58,45.15-1t45.15-.26l22.58,0Z" transform="translate(0 34)"/><path d="M814.74,652.47c7-.11,14.1-.12,21.15-.19l21.15,0,42.3.14,42.3.47,21.15.35c7.05.16,14.1.28,21.15.49-7.05.12-14.1.13-21.15.2l-21.15,0-42.31-.14-42.3-.47L835.88,653C828.84,652.8,821.79,652.69,814.74,652.47Z" transform="translate(0 34)"/><path d="M723.78,695.73l8.61.77,8.63.4,8.63.11,8.63-.18c11.5-.41,23-1.37,34.43-2.6s22.92-2.47,34.42-3.45l8.63-.66,8.64-.51,8.65-.27h8.65l-8.63.37-8.63.58-8.61.71-8.59.86-34.38,3.78c-11.48,1.1-23,2.09-34.56,2.27h-8.66l-8.66-.32-8.62-.72Z" transform="translate(0 34)"/></g><g id="Layer_1" data-name="Layer 1"><rect class="cls-2" x="804.19" y="598.36" width="12.6" height="13.09"/><rect class="cls-3" x="804.19" y="585.23" width="12.6" height="13.13"/><rect class="cls-4" x="804.19" y="572.14" width="12.6" height="13.09"/><rect class="cls-4" x="804.19" y="559.04" width="12.6" height="13.09"/><rect class="cls-5" x="804.19" y="545.92" width="12.6" height="13.13"/><rect class="cls-5" x="804.19" y="532.82" width="12.6" height="13.09"/><rect class="cls-6" x="804.19" y="454.16" width="12.6" height="13.13"/><rect class="cls-7" x="804.19" y="441.07" width="12.6" height="13.09"/><rect class="cls-7" x="804.19" y="427.94" width="12.6" height="13.13"/><rect class="cls-7" x="804.19" y="414.85" width="12.6" height="13.09"/><rect class="cls-7" x="804.19" y="401.72" width="12.6" height="13.13"/><rect class="cls-6" x="804.19" y="388.63" width="12.6" height="13.09"/><rect x="791.56" y="676.98" width="12.63" height="13.13"/><rect x="791.56" y="663.89" width="12.63" height="13.09"/><rect class="cls-8" x="791.56" y="650.8" width="12.63" height="13.09"/><rect class="cls-8" x="791.56" y="637.67" width="12.63" height="13.13"/><rect class="cls-5" x="791.56" y="624.58" width="12.63" height="13.09"/><rect class="cls-5" x="791.56" y="611.45" width="12.63" height="13.13"/><rect class="cls-8" x="791.56" y="598.36" width="12.63" height="13.09"/><rect class="cls-8" x="791.56" y="585.23" width="12.63" height="13.13"/><rect class="cls-8" x="791.56" y="572.14" width="12.63" height="13.09"/><rect class="cls-8" x="791.56" y="559.04" width="12.63" height="13.09"/><rect class="cls-4" x="791.56" y="545.92" width="12.63" height="13.13"/><rect class="cls-4" x="791.56" y="532.82" width="12.63" height="13.09"/><rect class="cls-5" x="791.56" y="519.7" width="12.63" height="13.13"/><rect class="cls-6" x="791.56" y="493.48" width="12.63" height="13.13"/><rect class="cls-7" x="791.56" y="480.38" width="12.63" height="13.09"/><rect class="cls-9" x="791.56" y="467.29" width="12.63" height="13.09"/><rect class="cls-9" x="791.56" y="454.16" width="12.63" height="13.13"/><rect class="cls-9" x="791.56" y="441.07" width="12.63" height="13.09"/><rect class="cls-3" x="791.56" y="427.94" width="12.63" height="13.13"/><rect class="cls-3" x="791.56" y="414.85" width="12.63" height="13.09"/><rect class="cls-7" x="791.56" y="401.72" width="12.63" height="13.13"/><rect class="cls-10" x="791.56" y="388.63" width="12.63" height="13.09"/><rect class="cls-7" x="791.56" y="375.54" width="12.63" height="13.09"/><rect x="778.93" y="676.98" width="12.63" height="13.13"/><rect x="778.93" y="663.89" width="12.63" height="13.09"/><rect class="cls-8" x="778.93" y="650.8" width="12.63" height="13.09"/><rect class="cls-8" x="778.93" y="637.67" width="12.63" height="13.13"/><rect class="cls-8" x="778.93" y="624.58" width="12.63" height="13.09"/><rect class="cls-8" x="778.93" y="611.45" width="12.63" height="13.13"/><rect class="cls-8" x="778.93" y="598.36" width="12.63" height="13.09"/><rect class="cls-8" x="778.93" y="585.23" width="12.63" height="13.13"/><rect class="cls-8" x="778.93" y="572.14" width="12.63" height="13.09"/><rect class="cls-8" x="778.93" y="559.04" width="12.63" height="13.09"/><rect class="cls-8" x="778.93" y="545.92" width="12.63" height="13.13"/><rect class="cls-4" x="778.93" y="532.82" width="12.63" height="13.09"/><rect class="cls-5" x="778.93" y="519.7" width="12.63" height="13.13"/><rect class="cls-6" x="778.93" y="506.6" width="12.63" height="13.09"/><rect class="cls-11" x="778.93" y="493.48" width="12.63" height="13.13"/><rect class="cls-9" x="778.93" y="480.38" width="12.63" height="13.09"/><rect class="cls-9" x="778.93" y="467.29" width="12.63" height="13.09"/><rect class="cls-9" x="778.93" y="454.16" width="12.63" height="13.13"/><rect class="cls-9" x="778.93" y="441.07" width="12.63" height="13.09"/><rect class="cls-9" x="778.93" y="427.94" width="12.63" height="13.13"/><rect class="cls-2" x="778.93" y="414.85" width="12.63" height="13.09"/><rect class="cls-2" x="778.93" y="401.72" width="12.63" height="13.13"/><rect class="cls-10" x="778.93" y="388.63" width="12.63" height="13.09"/><rect class="cls-10" x="778.93" y="375.54" width="12.63" height="13.09"/><rect x="766.3" y="676.98" width="12.63" height="13.13"/><rect class="cls-5" x="766.3" y="663.89" width="12.63" height="13.09"/><rect class="cls-8" x="766.3" y="650.8" width="12.63" height="13.09"/><rect class="cls-8" x="766.3" y="637.67" width="12.63" height="13.13"/><rect class="cls-8" x="766.3" y="624.58" width="12.63" height="13.09"/><rect class="cls-8" x="766.3" y="611.45" width="12.63" height="13.13"/><rect class="cls-8" x="766.3" y="598.36" width="12.63" height="13.09"/><rect class="cls-8" x="766.3" y="585.23" width="12.63" height="13.13"/><rect class="cls-8" x="766.3" y="572.14" width="12.63" height="13.09"/><rect class="cls-8" x="766.3" y="559.04" width="12.63" height="13.09"/><rect class="cls-8" x="766.3" y="545.92" width="12.63" height="13.13"/><rect class="cls-8" x="766.3" y="532.82" width="12.63" height="13.09"/><rect class="cls-8" x="766.3" y="519.7" width="12.63" height="13.13"/><rect class="cls-11" x="766.3" y="506.6" width="12.63" height="13.09"/><rect class="cls-11" x="766.3" y="493.48" width="12.63" height="13.13"/><rect class="cls-9" x="766.3" y="480.38" width="12.63" height="13.09"/><rect class="cls-9" x="766.3" y="467.29" width="12.63" height="13.09"/><rect class="cls-9" x="766.3" y="454.16" width="12.63" height="13.13"/><rect class="cls-12" x="766.3" y="441.07" width="12.63" height="13.09"/><rect class="cls-9" x="766.3" y="427.94" width="12.63" height="13.13"/><rect class="cls-3" x="766.3" y="414.85" width="12.63" height="13.09"/><rect class="cls-6" x="766.3" y="401.72" width="12.63" height="13.13"/><rect class="cls-7" x="766.3" y="388.63" width="12.63" height="13.09"/><rect class="cls-10" x="766.3" y="375.54" width="12.63" height="13.09"/><rect x="753.67" y="676.98" width="12.63" height="13.13"/><rect class="cls-5" x="753.67" y="663.89" width="12.63" height="13.09"/><rect class="cls-5" x="753.67" y="650.8" width="12.63" height="13.09"/><rect class="cls-8" x="753.67" y="637.67" width="12.63" height="13.13"/><rect class="cls-8" x="753.67" y="624.58" width="12.63" height="13.09"/><rect class="cls-13" x="753.67" y="611.45" width="12.63" height="13.13"/><rect class="cls-8" x="753.67" y="598.36" width="12.63" height="13.09"/><rect class="cls-8" x="753.67" y="585.23" width="12.63" height="13.13"/><rect class="cls-13" x="753.67" y="572.14" width="12.63" height="13.09"/><rect class="cls-8" x="753.67" y="559.04" width="12.63" height="13.09"/><rect class="cls-13" x="753.67" y="545.92" width="12.63" height="13.13"/><rect class="cls-8" x="753.67" y="532.82" width="12.63" height="13.09"/><rect class="cls-4" x="753.67" y="519.7" width="12.63" height="13.13"/><rect class="cls-14" x="753.67" y="506.6" width="12.63" height="13.09"/><rect class="cls-2" x="753.67" y="493.48" width="12.63" height="13.13"/><rect class="cls-9" x="753.67" y="480.38" width="12.63" height="13.09"/><rect class="cls-9" x="753.67" y="467.29" width="12.63" height="13.09"/><rect class="cls-9" x="753.67" y="454.16" width="12.63" height="13.13"/><rect class="cls-9" x="753.67" y="441.07" width="12.63" height="13.09"/><rect class="cls-9" x="753.67" y="427.94" width="12.63" height="13.13"/><rect class="cls-2" x="753.67" y="414.85" width="12.63" height="13.09"/><rect class="cls-3" x="753.67" y="401.72" width="12.63" height="13.13"/><rect class="cls-7" x="753.67" y="388.63" width="12.63" height="13.09"/><rect class="cls-7" x="753.67" y="375.54" width="12.63" height="13.09"/><rect class="cls-6" x="753.67" y="362.41" width="12.63" height="13.13"/><rect class="cls-8" x="741.04" y="637.67" width="12.63" height="13.13"/><rect class="cls-8" x="741.04" y="624.58" width="12.63" height="13.09"/><rect class="cls-15" x="741.04" y="611.45" width="12.63" height="13.13"/><rect class="cls-4" x="741.04" y="598.36" width="12.63" height="13.09"/><rect class="cls-15" x="741.04" y="585.23" width="12.63" height="13.13"/><rect class="cls-4" x="741.04" y="572.14" width="12.63" height="13.09"/><rect class="cls-15" x="741.04" y="559.04" width="12.63" height="13.09"/><rect class="cls-4" x="741.04" y="545.92" width="12.63" height="13.13"/><rect class="cls-4" x="741.04" y="532.82" width="12.63" height="13.09"/><rect class="cls-5" x="741.04" y="519.7" width="12.63" height="13.13"/><rect class="cls-16" x="741.04" y="506.6" width="12.63" height="13.09"/><rect class="cls-2" x="741.04" y="493.48" width="12.63" height="13.13"/><rect class="cls-17" x="741.04" y="480.38" width="12.63" height="13.09"/><rect class="cls-9" x="741.04" y="467.29" width="12.63" height="13.09"/><rect class="cls-3" x="741.04" y="454.16" width="12.63" height="13.13"/><rect class="cls-9" x="741.04" y="441.07" width="12.63" height="13.09"/><rect class="cls-9" x="741.04" y="427.94" width="12.63" height="13.13"/><rect class="cls-3" x="741.04" y="414.85" width="12.63" height="13.09"/><rect class="cls-3" x="741.04" y="401.72" width="12.63" height="13.13"/><rect class="cls-7" x="741.04" y="388.63" width="12.63" height="13.09"/><rect class="cls-7" x="741.04" y="375.54" width="12.63" height="13.09"/><rect class="cls-7" x="741.04" y="362.41" width="12.63" height="13.13"/><rect x="728.44" y="676.98" width="12.6" height="13.13"/><rect class="cls-4" x="728.44" y="663.89" width="12.6" height="13.09"/><rect class="cls-8" x="728.44" y="650.8" width="12.6" height="13.09"/><rect class="cls-8" x="728.44" y="637.67" width="12.6" height="13.13"/><rect class="cls-5" x="728.44" y="624.58" width="12.6" height="13.09"/><rect class="cls-5" x="728.44" y="611.45" width="12.6" height="13.13"/><rect class="cls-5" x="728.44" y="598.36" width="12.6" height="13.09"/><rect class="cls-5" x="728.44" y="585.23" width="12.6" height="13.13"/><rect class="cls-5" x="728.44" y="572.14" width="12.6" height="13.09"/><rect class="cls-5" x="728.44" y="559.04" width="12.6" height="13.09"/><rect class="cls-5" x="728.44" y="545.92" width="12.6" height="13.13"/><rect class="cls-5" x="728.44" y="532.82" width="12.6" height="13.09"/><rect class="cls-4" x="728.44" y="519.7" width="12.6" height="13.13"/><rect class="cls-11" x="728.44" y="506.6" width="12.6" height="13.09"/><rect class="cls-2" x="728.44" y="493.48" width="12.6" height="13.13"/><rect class="cls-9" x="728.44" y="480.38" width="12.6" height="13.09"/><rect class="cls-9" x="728.44" y="467.29" width="12.6" height="13.09"/><rect class="cls-9" x="728.44" y="454.16" width="12.6" height="13.13"/><rect class="cls-9" x="728.44" y="441.07" width="12.6" height="13.09"/><rect class="cls-2" x="728.44" y="427.94" width="12.6" height="13.13"/><rect class="cls-3" x="728.44" y="414.85" width="12.6" height="13.09"/><rect class="cls-6" x="728.44" y="401.72" width="12.6" height="13.13"/><rect class="cls-7" x="728.44" y="388.63" width="12.6" height="13.09"/><rect class="cls-7" x="728.44" y="375.54" width="12.6" height="13.09"/><rect class="cls-6" x="728.44" y="362.41" width="12.6" height="13.13"/><rect x="715.81" y="676.98" width="12.63" height="13.13"/><rect class="cls-5" x="715.81" y="663.89" width="12.63" height="13.09"/><rect class="cls-5" x="715.81" y="650.8" width="12.63" height="13.09"/><rect class="cls-4" x="715.81" y="637.67" width="12.63" height="13.13"/><rect class="cls-4" x="715.81" y="624.58" width="12.63" height="13.09"/><rect class="cls-8" x="715.81" y="611.45" width="12.63" height="13.13"/><rect class="cls-8" x="715.81" y="598.36" width="12.63" height="13.09"/><rect class="cls-5" x="715.81" y="585.23" width="12.63" height="13.13"/><rect class="cls-8" x="715.81" y="572.14" width="12.63" height="13.09"/><rect class="cls-8" x="715.81" y="559.04" width="12.63" height="13.09"/><rect class="cls-8" x="715.81" y="545.92" width="12.63" height="13.13"/><rect class="cls-8" x="715.81" y="532.82" width="12.63" height="13.09"/><rect class="cls-8" x="715.81" y="519.7" width="12.63" height="13.13"/><rect class="cls-14" x="715.81" y="506.6" width="12.63" height="13.09"/><rect class="cls-14" x="715.81" y="493.48" width="12.63" height="13.13"/><rect class="cls-9" x="715.81" y="480.38" width="12.63" height="13.09"/><rect class="cls-9" x="715.81" y="467.29" width="12.63" height="13.09"/><rect class="cls-2" x="715.81" y="454.16" width="12.63" height="13.13"/><rect class="cls-12" x="715.81" y="441.07" width="12.63" height="13.09"/><rect class="cls-2" x="715.81" y="427.94" width="12.63" height="13.13"/><rect class="cls-3" x="715.81" y="414.85" width="12.63" height="13.09"/><rect class="cls-6" x="715.81" y="401.72" width="12.63" height="13.13"/><rect class="cls-7" x="715.81" y="388.63" width="12.63" height="13.09"/><rect class="cls-7" x="715.81" y="375.54" width="12.63" height="13.09"/><rect class="cls-7" x="715.81" y="362.41" width="12.63" height="13.13"/><rect x="703.18" y="676.98" width="12.63" height="13.13"/><rect x="703.18" y="663.89" width="12.63" height="13.09"/><rect class="cls-5" x="703.18" y="650.8" width="12.63" height="13.09"/><rect class="cls-4" x="703.18" y="637.67" width="12.63" height="13.13"/><rect class="cls-4" x="703.18" y="624.58" width="12.63" height="13.09"/><rect class="cls-4" x="703.18" y="611.45" width="12.63" height="13.13"/><rect class="cls-5" x="703.18" y="598.36" width="12.63" height="13.09"/><rect class="cls-5" x="703.18" y="585.23" width="12.63" height="13.13"/><rect class="cls-4" x="703.18" y="572.14" width="12.63" height="13.09"/><rect class="cls-4" x="703.18" y="559.04" width="12.63" height="13.09"/><rect class="cls-8" x="703.18" y="545.92" width="12.63" height="13.13"/><rect class="cls-8" x="703.18" y="532.82" width="12.63" height="13.09"/><rect class="cls-5" x="703.18" y="519.7" width="12.63" height="13.13"/><rect class="cls-5" x="703.18" y="506.6" width="12.63" height="13.09"/><rect class="cls-14" x="703.18" y="493.48" width="12.63" height="13.13"/><rect class="cls-3" x="703.18" y="480.38" width="12.63" height="13.09"/><rect class="cls-2" x="703.18" y="467.29" width="12.63" height="13.09"/><rect class="cls-2" x="703.18" y="454.16" width="12.63" height="13.13"/><rect class="cls-2" x="703.18" y="441.07" width="12.63" height="13.09"/><rect class="cls-3" x="703.18" y="427.94" width="12.63" height="13.13"/><rect class="cls-3" x="703.18" y="414.85" width="12.63" height="13.09"/><rect class="cls-3" x="703.18" y="401.72" width="12.63" height="13.13"/><rect class="cls-6" x="703.18" y="388.63" width="12.63" height="13.09"/><rect class="cls-6" x="703.18" y="375.54" width="12.63" height="13.09"/><rect x="690.55" y="676.98" width="12.63" height="13.13"/><rect x="690.55" y="663.89" width="12.63" height="13.09"/><rect class="cls-5" x="690.55" y="650.8" width="12.63" height="13.09"/><rect class="cls-5" x="690.55" y="637.67" width="12.63" height="13.13"/><rect class="cls-5" x="690.55" y="624.58" width="12.63" height="13.09"/><rect class="cls-5" x="690.55" y="611.45" width="12.63" height="13.13"/><rect class="cls-5" x="690.55" y="598.36" width="12.63" height="13.09"/><rect class="cls-5" x="690.55" y="585.23" width="12.63" height="13.13"/><rect class="cls-5" x="690.55" y="572.14" width="12.63" height="13.09"/><rect class="cls-5" x="690.55" y="559.04" width="12.63" height="13.09"/><rect class="cls-4" x="690.55" y="545.92" width="12.63" height="13.13"/><rect class="cls-5" x="690.55" y="532.82" width="12.63" height="13.09"/><rect class="cls-10" x="690.55" y="519.7" width="12.63" height="13.13"/><rect class="cls-10" x="690.55" y="506.6" width="12.63" height="13.09"/><rect class="cls-7" x="690.55" y="493.48" width="12.63" height="13.13"/><rect class="cls-6" x="690.55" y="480.38" width="12.63" height="13.09"/><rect class="cls-3" x="690.55" y="467.29" width="12.63" height="13.09"/><rect class="cls-3" x="690.55" y="454.16" width="12.63" height="13.13"/><rect class="cls-3" x="690.55" y="441.07" width="12.63" height="13.09"/><rect class="cls-3" x="690.55" y="427.94" width="12.63" height="13.13"/><rect class="cls-6" x="690.55" y="414.85" width="12.63" height="13.09"/><rect class="cls-10" x="690.55" y="401.72" width="12.63" height="13.13"/><rect class="cls-10" x="690.55" y="388.63" width="12.63" height="13.09"/><rect class="cls-7" x="690.55" y="375.54" width="12.63" height="13.09"/><rect class="cls-3" x="677.92" y="598.36" width="12.63" height="13.09"/><rect class="cls-18" x="677.92" y="585.23" width="12.63" height="13.13"/><rect class="cls-5" x="677.92" y="572.14" width="12.63" height="13.09"/><rect class="cls-4" x="677.92" y="559.04" width="12.63" height="13.09"/><rect class="cls-4" x="677.92" y="545.92" width="12.63" height="13.13"/><rect class="cls-5" x="677.92" y="532.82" width="12.63" height="13.09"/><rect class="cls-5" x="677.92" y="519.7" width="12.63" height="13.13"/><rect class="cls-6" x="677.92" y="506.6" width="12.63" height="13.09"/><rect class="cls-7" x="677.92" y="493.48" width="12.63" height="13.13"/><rect class="cls-10" x="677.92" y="480.38" width="12.63" height="13.09"/><rect class="cls-10" x="677.92" y="467.29" width="12.63" height="13.09"/><rect class="cls-10" x="677.92" y="454.16" width="12.63" height="13.13"/><rect class="cls-6" x="677.92" y="441.07" width="12.63" height="13.09"/><rect class="cls-10" x="677.92" y="427.94" width="12.63" height="13.13"/><rect class="cls-10" x="677.92" y="414.85" width="12.63" height="13.09"/><rect class="cls-10" x="677.92" y="401.72" width="12.63" height="13.13"/><rect class="cls-7" x="677.92" y="388.63" width="12.63" height="13.09"/><rect class="cls-2" x="665.32" y="598.36" width="12.6" height="13.09"/><rect class="cls-2" x="665.32" y="585.23" width="12.6" height="13.13"/><rect class="cls-5" x="665.32" y="572.14" width="12.6" height="13.09"/><rect class="cls-5" x="665.32" y="559.04" width="12.6" height="13.09"/><rect class="cls-5" x="665.32" y="545.92" width="12.6" height="13.13"/><rect class="cls-5" x="665.32" y="532.82" width="12.6" height="13.09"/><rect class="cls-10" x="665.32" y="427.94" width="12.6" height="13.13"/><rect class="cls-10" x="665.32" y="414.85" width="12.6" height="13.09"/><rect class="cls-7" x="665.32" y="401.72" width="12.6" height="13.13"/></g></svg>